<svg width="181" height="47" fill="none" xmlns="http://www.w3.org/2000/svg"><path d="M63.36 18h-2.727l-4.031-7.078V18h-2.743V6.625h2.743l4.023 7.078V6.625h2.734V18zm12.242 0h-2.727v-4.75h-4.04V18h-2.741V6.625h2.742v4.516h4.039V6.625h2.727V18zm9.343-2.125h-3.757L80.53 18H77.6l4.172-11.375h2.579L88.555 18h-2.946l-.664-2.125zm-3.101-2.117h2.445l-1.227-3.945-1.218 3.945zm2.5-7.727h-2.14L80 3.578h2.781l1.563 2.453zm15.273 4.375l1.86-3.781h3.132l-3.179 5.64L104.695 18h-3.164l-1.914-3.852L97.703 18h-3.156l3.258-5.734-3.172-5.641h3.125l1.86 3.781zm15.899-3.781v7.445c0 .844-.18 1.576-.539 2.196a3.502 3.502 0 01-1.547 1.406c-.672.323-1.466.484-2.383.484-1.386 0-2.477-.36-3.274-1.078-.796-.719-1.203-1.703-1.218-2.953v-7.5h2.757v7.555c.032 1.245.61 1.867 1.735 1.867.568 0 .997-.156 1.289-.469.292-.312.437-.82.437-1.523v-7.43h2.743zm9.007 9.25h-3.757L120.109 18h-2.929l4.172-11.375h2.578L128.133 18h-2.945l-.665-2.125zm-3.101-2.117h2.445l-1.226-3.945-1.219 3.945zm.57-9.399h1.289l2.188 1.704h-1.711l-1.117-.907-1.125.907h-1.704l2.18-1.704zm4.281-1.367h1.883l-1.875 2.149h-1.375l1.367-2.149zm11.688 5.75h-3.414V18h-2.742V8.742h-3.352V6.625h9.508v2.117zm6.68 9.258V6.625h4.086c1.463 0 2.575.268 3.335.805.766.536 1.149 1.315 1.149 2.336 0 .588-.135 1.09-.406 1.507-.271.417-.67.724-1.196.922.594.157 1.05.448 1.368.875.317.427.476.948.476 1.563 0 1.114-.354 1.953-1.062 2.515-.703.558-1.748.842-3.133.852h-4.617zm2.742-4.836v2.727h1.797c.494 0 .875-.112 1.14-.336.266-.23.399-.55.399-.961 0-.948-.472-1.425-1.414-1.43h-1.922zm0-1.797h1.429c.599-.005 1.027-.114 1.282-.328.255-.213.383-.529.383-.945 0-.48-.138-.823-.415-1.031-.276-.214-.721-.32-1.335-.32h-1.344v2.624zm15.047 4.508h-3.758L158.016 18h-2.93l4.172-11.375h2.578L166.039 18h-2.945l-.664-2.125zm-3.102-2.117h2.445l-1.226-3.945-1.219 3.945zm.219-8.078l-.172-.985c.714-.03 1.07-.195 1.07-.492 0-.344-.351-.516-1.054-.516l.054-1.132c1.084 0 1.901.135 2.453.406.553.27.829.648.829 1.133a.974.974 0 01-.313.734c-.208.193-.495.315-.859.367v.485h-2.008zM177.375 18h-2.727l-4.031-7.078V18h-2.742V6.625h2.742l4.024 7.078V6.625h2.734V18zM58.102 32.406l1.859-3.781h3.133l-3.18 5.64L63.18 40h-3.164l-1.914-3.852L56.188 40H53.03l3.258-5.734-3.172-5.641h3.125l1.86 3.781zm13.437 5.469h-3.758L67.125 40h-2.93l4.172-11.375h2.578L75.148 40h-2.945l-.664-2.125zm-3.102-2.117h2.446l-1.227-3.946-1.219 3.946zM73 27.773v.102h-2.078l-1.242-1.063-1.243 1.063h-2.03v-.133l2.523-2.164h1.507L73 27.773zm6.977 5.79l2.093-4.938h2.961l-3.664 7.29V40h-2.781v-4.086l-3.656-7.289h2.945l2.102 4.938zM91.844 40V28.625h3.664c1.005 0 1.909.23 2.71.688a4.75 4.75 0 011.876 1.93c.453.827.682 1.757.687 2.788v.524c0 1.041-.221 1.976-.664 2.804a4.823 4.823 0 01-1.86 1.938c-.796.463-1.687.698-2.671.703h-3.742zm2.742-9.258v7.149h.953c.787 0 1.39-.279 1.813-.836.421-.563.632-1.396.632-2.5v-.492c0-1.1-.21-1.928-.632-2.485-.422-.557-1.037-.836-1.844-.836h-.922zm17.523-2.117v1.813c.381-.026.675-.112.883-.258.209-.146.357-.352.446-.617.088-.271.132-.795.132-1.57h1.602c0 1.312-.248 2.252-.742 2.82-.49.567-1.263.87-2.321.906v4.351c0 .844-.179 1.576-.539 2.196a3.496 3.496 0 01-1.547 1.406c-.671.323-1.466.484-2.382.484-1.386 0-2.477-.36-3.274-1.078-.797-.719-1.203-1.703-1.219-2.953v-7.5h2.758v7.555c.032 1.245.61 1.867 1.735 1.867.567 0 .997-.156 1.289-.469.291-.312.437-.82.437-1.523v-7.43h2.742zm-5.562 13.242c0-.338.138-.617.414-.836.281-.218.63-.328 1.047-.328.416 0 .763.11 1.039.328.281.219.422.498.422.836 0 .339-.141.617-.422.836-.276.219-.623.328-1.039.328-.417 0-.766-.11-1.047-.328a1.021 1.021 0 01-.414-.836zM125.203 40h-2.726l-4.032-7.078V40h-2.742V28.625h2.742l4.024 7.078v-7.078h2.734V40zm12.047-1.406c-.422.468-1.039.846-1.852 1.133-.812.286-1.703.43-2.671.43-1.49 0-2.68-.456-3.571-1.368-.89-.911-1.367-2.18-1.429-3.805l-.008-.984c0-1.12.198-2.096.593-2.93.396-.838.961-1.482 1.696-1.93.739-.453 1.594-.68 2.562-.68 1.417 0 2.516.326 3.297.977.787.646 1.245 1.612 1.375 2.899h-2.64c-.094-.635-.297-1.089-.61-1.36-.312-.27-.755-.406-1.328-.406-.687 0-1.219.292-1.594.875-.375.584-.565 1.417-.57 2.5v.688c0 1.135.193 1.99.578 2.562.391.568 1.003.852 1.836.852.714 0 1.245-.159 1.594-.477v-1.765h-1.906v-1.883h4.648v4.672z" fill="#4F4F4F"/><mask id="a" maskUnits="userSpaceOnUse" x="0" y="1" width="46" height="46"><path fill-rule="evenodd" clip-rule="evenodd" d="M0 1.238h45.504V46.33H0V1.238z" fill="#fff"/></mask><g mask="url(#a)"><path fill-rule="evenodd" clip-rule="evenodd" d="M22.752 46.33c-.905-1.411-2.76-3.408-4.955-3.47H0V1.236h18.215c1.713.092 3.299.896 4.537 2.097 1.238-1.201 2.824-2.005 4.537-2.097h18.215V42.86H27.707c-2.194.062-4.05 2.059-4.955 3.47zm0-38.79c-1.126-.91-2.685-2.629-4.636-2.629H3.698v34.274H18c2.02 0 3.711.768 4.752 2.19 1.04-1.422 2.733-2.19 4.752-2.19h14.302V4.911H27.389c-1.951 0-3.51 1.719-4.636 2.63z" fill="#02010E"/></g><mask id="b" maskUnits="userSpaceOnUse" x="0" y="1" width="46" height="45"><path fill-rule="evenodd" clip-rule="evenodd" d="M0 45.422h45.592V1.15H0v44.272z" fill="#fff"/></mask><g mask="url(#b)"><path fill-rule="evenodd" clip-rule="evenodd" d="M7.124 36.853h4.602v-4.67H7.124v4.67zm32.751-22.059v.023l.018.006-.018.059v.96H24.013v7.733H22.98v-7.733h-5.637v-1.048L23.5 9.719l16.3 5.075h.075zm-20.767 0h3.872V11.48l-3.872 3.313zm4.905-3.82v3.82h12.265l-12.265-3.82zm11.26 14.442h4.602v-4.669h-4.602v4.67zm-22.514 0h4.603v-4.669H12.76v4.67zm-5.635 0h4.602v-4.669H7.124v4.67zm0 5.718h4.602v-4.67H7.124v4.67zm5.635 0h4.603v-4.67H12.76v4.67zm5.636 0h4.602v-4.67h-4.602v4.67zm5.636 0h4.603v-4.67H24.03v4.67zm11.242 5.719h4.602v-4.67h-4.602v4.67zm-5.637 0h4.603v-4.67h-4.603v4.67zm-5.605 0h4.603v-4.67H24.03v4.67zm-5.636 0h4.602v-4.67h-4.602v4.67zm-5.636 0h4.603v-4.67H12.76v4.67z" fill="#02010E"/></g></svg>